<svg xmlns="http://www.w3.org/2000/svg" width="48" height="48" viewBox="0 0 48 48" fill="none">
  <g clip-path="url(#clip0_1_1161)">
    <path d="M24.0003 42.0003L40.7553 25.0053C42.5136 23.2469 43.5015 20.862 43.5015 18.3753C43.5015 15.8885 42.5136 13.5036 40.7553 11.7453C38.9969 9.98687 36.612 8.99902 34.1253 8.99902C31.6385 8.99902 29.2536 9.98687 27.4953 11.7453L24.0003 15.0003L20.5053 11.7453C18.7469 9.98687 16.362 8.99902 13.8753 8.99902C11.3885 8.99902 9.00364 9.98687 7.24526 11.7453C5.48687 13.5036 4.49902 15.8885 4.49902 18.3753C4.49902 20.862 5.48687 23.2469 7.24526 25.0053L24.0003 42.0003Z" stroke="#78D4B1" stroke-width="2" stroke-linecap="round" stroke-linejoin="round"/>
  </g>
  <defs>
    <clipPath id="clip0_1_1161">
      <rect width="48" height="48" fill="white"/>
    </clipPath>
  </defs>
</svg>