<svg xmlns="http://www.w3.org/2000/svg" width="48" height="48" viewBox="0 0 48 48" fill="none">
  <g clip-path="url(#clip0_1_1322)">
    <path d="M7.5 13.4723V34.5285C7.50229 34.7936 7.5756 35.0533 7.71231 35.2805C7.84902 35.5076 8.04412 35.694 8.2773 35.8202C8.51049 35.9463 8.77323 36.0077 9.03817 35.9978C9.30312 35.988 9.56058 35.9073 9.78375 35.7642L26.3194 25.236C26.5277 25.1041 26.6993 24.9216 26.8182 24.7056C26.9371 24.4896 26.9995 24.247 26.9995 24.0004C26.9995 23.7538 26.9371 23.5112 26.8182 23.2952C26.6993 23.0792 26.5277 22.8967 26.3194 22.7648L9.78375 12.2367C9.56058 12.0935 9.30312 12.0128 9.03817 12.003C8.77323 11.9931 8.51049 12.0545 8.2773 12.1806C8.04412 12.3068 7.84902 12.4932 7.71231 12.7203C7.5756 12.9475 7.50229 13.2072 7.5 13.4723Z" stroke="#78D4B1" stroke-width="2" stroke-linecap="round" stroke-linejoin="round"/>
    <path d="M27 13.4723V34.5285C27.0023 34.7936 27.0756 35.0533 27.2123 35.2805C27.349 35.5076 27.5441 35.694 27.7773 35.8202C28.0105 35.9463 28.2732 36.0077 28.5382 35.9978C28.8031 35.988 29.0606 35.9073 29.2837 35.7642L45.8194 25.236C46.0277 25.1041 46.1993 24.9216 46.3182 24.7056C46.4371 24.4896 46.4995 24.247 46.4995 24.0004C46.4995 23.7538 46.4371 23.5112 46.3182 23.2952C46.1993 23.0792 46.0277 22.8967 45.8194 22.7648L29.2837 12.2367C29.0606 12.0935 28.8031 12.0128 28.5382 12.003C28.2732 11.9931 28.0105 12.0545 27.7773 12.1806C27.5441 12.3068 27.349 12.4932 27.2123 12.7203C27.0756 12.9475 27.0023 13.2072 27 13.4723Z" stroke="#78D4B1" stroke-width="2" stroke-linecap="round" stroke-linejoin="round"/>
  </g>
  <defs>
    <clipPath id="clip0_1_1322">
      <rect width="48" height="48" fill="white"/>
    </clipPath>
  </defs>
</svg>